<svg width="240" height="240" viewBox="0 0 240 240" fill="none" xmlns="http://www.w3.org/2000/svg">
<path d="M240 120C240 186.274 186.274 240 120 240C53.7258 240 0 186.274 0 120C0 53.7258 53.7258 0 120 0C186.274 0 240 53.7258 240 120Z" fill="white"/>
<path d="M132.174 110.644C131.514 113.129 129.864 115.281 127.554 116.441C126.234 117.269 124.584 117.6 122.935 117.6C122.11 117.6 121.12 117.434 120.295 117.269C117.82 116.606 115.84 114.95 114.52 112.632L92.4114 118.262C93.0714 122.899 92.0814 127.371 89.7716 131.345L102.311 141.944C102.806 141.613 103.301 141.116 103.961 140.785C110.065 137.307 117.82 139.626 121.285 145.753C124.749 151.88 122.44 159.664 116.335 163.142C114.355 164.301 112.21 164.798 110.23 164.798C105.776 164.798 101.321 162.479 99.011 158.174C96.7011 154.033 97.0311 149.065 99.341 145.256L87.1317 134.823C85.8118 136.313 84.1619 137.638 82.182 138.632C79.0472 140.288 75.7474 141.116 72.2826 141.116C70.4677 141.116 68.4878 140.785 66.6729 140.288C61.3933 138.798 57.1035 135.32 54.4637 130.517C49.184 120.912 52.6488 108.492 62.3832 103.027C67.1679 100.377 72.6126 99.7145 77.8923 101.205C83.172 102.695 87.4617 106.173 90.1015 110.976C90.5965 111.969 91.0915 112.797 91.4215 113.791L113.365 108.16C113.365 107.167 113.365 106.173 113.695 105.179C114.355 102.695 116.005 100.543 118.315 99.3833C122.935 96.7336 128.874 98.5552 131.514 103.192C132.669 105.511 132.999 108.16 132.174 110.644Z" fill="#67C1BF"/>
<path d="M166.655 175.064C163.85 179.701 159.395 183.013 154.116 184.338C152.466 184.669 150.816 185 149.166 185C145.536 185 141.906 184.006 138.772 182.019C129.202 176.223 126.067 163.637 131.842 154.032C132.337 153.204 132.997 152.376 133.657 151.547L117.818 135.318C116.333 136.312 114.518 136.809 112.703 136.809C111.053 136.809 109.238 136.312 107.753 135.484C105.609 134.159 103.959 132.006 103.299 129.522C102.639 127.038 103.134 124.388 104.454 122.235C105.774 120.082 107.918 118.426 110.393 117.764C112.868 117.101 115.508 117.598 117.653 118.923C122.273 121.738 123.758 127.7 120.953 132.172L136.792 148.567C140.422 145.751 144.876 144.261 149.496 144.426L152.301 128.197C151.641 128.031 151.146 127.7 150.486 127.369C147.516 125.547 145.536 122.732 144.711 119.42C143.886 116.108 144.381 112.63 146.196 109.649C148.011 106.668 150.816 104.681 154.116 103.853C157.416 103.025 160.88 103.522 163.85 105.343C169.955 108.987 171.77 116.936 168.14 122.898C166.325 125.879 163.52 127.866 160.22 128.694C159.23 129.025 158.075 129.025 157.086 129.025C156.921 129.025 156.921 129.025 156.756 129.025L153.951 144.923C155.931 145.42 157.911 146.248 159.725 147.242C169.295 152.872 172.43 165.458 166.655 175.064Z" fill="#FFDB06"/>
<path d="M168.635 75.3696C168.635 86.6308 159.561 95.7392 148.341 95.7392C147.351 95.7392 146.197 95.5736 145.207 95.408L139.432 117.434C142.567 119.09 144.712 122.236 144.712 126.045C144.712 131.345 140.422 135.816 134.977 135.816C129.697 135.816 125.243 131.51 125.243 126.045C125.243 120.746 129.532 116.274 134.977 116.274L140.752 94.2487C136.462 92.5927 132.997 89.4461 130.687 85.4716L115.343 91.4334C115.508 92.0958 115.508 92.7583 115.508 93.4207C115.508 100.542 109.734 106.172 102.804 106.172C95.7095 106.172 90.0998 100.376 90.0998 93.4207C90.0998 86.2996 95.8745 80.669 102.804 80.669C107.589 80.669 111.714 83.3187 113.858 87.2933L128.873 81.497C128.213 79.5097 127.883 77.5225 127.883 75.3696C128.048 64.1084 137.122 55 148.341 55C159.561 55 168.635 64.1084 168.635 75.3696Z" fill="#142837"/>
</svg>
