<svg xml:space="preserve" style="enable-background:new 206.1 -3.7 263.5 56.8;" viewBox="206.1 -3.7 263.5 56.8" y="0px" x="0px" xmlns:xlink="http://www.w3.org/1999/xlink" xmlns="http://www.w3.org/2000/svg" id="Layer_1" version="1.1">
<polygon points="325,52.9 343.3,-3.7 326.5,-3.7 316,34.2 305.5,-3.7 286.1,-3.7 304.8,52.9"></polygon>
<rect height="56.6" width="18.1" y="-3.7" x="347.8"></rect>
<path d="M422.6,37.2v-0.3c0-7.9-4.7-12-11.3-13.2c6.3-1.5,9.8-5.6,9.8-12.2v-0.3c0-8.4-5.4-14.8-19.3-14.8H375V53h26.6
	C416.2,52.9,422.6,47.2,422.6,37.2 M392.5,8h5.4c4.4,0,6.3,1.7,6.3,5.1v0.3c0,3.5-1.7,5-6.2,5h-5.5L392.5,8L392.5,8z M392.5,41.1
	v-12h5.3c5.1,0,7.1,2.1,7.1,5.8v0.3c0,3.8-2.1,5.9-6.7,5.9C398.2,41.1,392.5,41.1,392.5,41.1z"></path>
<polygon points="446,30.7 463.8,30.7 463.8,18.1 446,18.1 446,10.1 468.3,10.1 468.3,-3.7 428.1,-3.7 428.1,52.9 469.6,52.9 
	469.6,39.2 446,39.2"></polygon>
<path d="M257.4,14.7V15c0,7.8-4,12.3-9.6,14.8l12.5,23.1h24.2V39.2h-23.6v-8.5h17.7V18.1h-17.7v-8h22.3V-3.7H243v0.9
	C252.5-0.6,257.4,5.3,257.4,14.7"></path>
<path d="M224,33.5h2.9l1.6,2.9l8.9,16.5h18.9l-13-23.1c5.6-2.5,9.6-7,9.6-14.8v-0.3c0-7.8-3.4-13.2-10-16c-3.6-1.6-8.2-2.3-13.7-2.3
	h-23.1V53H224V33.5z M224,9.8h4.3c0.1,0,0.1,0,0.2,0c4.7,0,7.1,1.6,7.1,5.7v0.3c0,4-2.3,6.1-7.1,6.2c-0.1,0-0.2,0-0.3,0H224V9.8z"></path>
</svg>
